<svg width="16" height="12" viewBox="0 0 16 12" fill="none" xmlns="http://www.w3.org/2000/svg">
<path d="M0.334745 0.973625C2.53068 2.83334 6.38387 6.10516 7.51637 7.12531C7.6684 7.263 7.83146 7.333 8.00074 7.333C8.16968 7.333 8.33246 7.26366 8.48415 7.12663C9.61762 6.10547 13.4708 2.83334 15.6668 0.973625C15.8035 0.858063 15.8243 0.654938 15.7136 0.513657C15.4578 0.187187 15.0763 0 14.6674 0H1.33409C0.925244 0 0.543713 0.187187 0.28787 0.513687C0.177182 0.654938 0.198026 0.858063 0.334745 0.973625Z" fill="white"/>
<path d="M15.8067 1.98145C15.6885 1.92645 15.5495 1.94564 15.4512 2.02964C13.0159 4.09408 9.90788 6.74027 8.93 7.62142C8.38116 8.11686 7.61944 8.11686 7.06931 7.62077C6.027 6.68165 2.53675 3.71452 0.548813 2.02961C0.449844 1.94561 0.310532 1.92708 0.193344 1.98142C0.0755313 2.03614 0 2.15399 0 2.28386V10.6667C0 11.402 0.597969 12 1.33334 12H14.6667C15.402 12 16 11.402 16 10.6667V2.28386C16 2.15399 15.9245 2.03583 15.8067 1.98145Z" fill="white"/>
</svg>
