<svg width="27" height="30" viewBox="0 0 27 30" fill="none" xmlns="http://www.w3.org/2000/svg">
<path d="M7.6001 18.2C7.93343 18.7333 8.3001 19.5667 8.7001 20.7C9.1001 21.8333 9.23343 22.8333 9.1001 23.7C8.76676 26.4333 7.76676 28.0667 6.1001 28.6C4.3001 29.2667 2.83343 28.9 1.7001 27.5C0.566765 26.0333 0.100098 24.1 0.300098 21.7C0.433431 19.9 0.866765 18 1.6001 16C2.4001 14 3.33343 12.0667 4.4001 10.2C5.46677 8.26666 6.6001 6.5 7.8001 4.9C9.0001 3.23333 10.1334 1.9 11.2001 0.899997C11.7334 0.433329 12.2668 0.166661 12.8001 0.0999956C13.3334 0.0333298 13.7668 0.133331 14.1001 0.399998C14.4334 0.599995 14.6334 0.933328 14.7001 1.4C14.7668 1.86666 14.6001 2.36666 14.2001 2.9C12.5334 5.23333 11.1001 7.46666 9.9001 9.6C8.76677 11.7333 7.93343 13.8333 7.4001 15.9C7.33343 16.0333 7.3001 16.4 7.3001 17C7.3001 17.5333 7.4001 17.9333 7.6001 18.2ZM20.5001 18.6C20.9001 19.1333 21.3001 19.9667 21.7001 21.1C22.1001 22.2333 22.2668 23.2333 22.2001 24.1C22.0001 26.7667 21.0334 28.4333 19.3001 29.1C18.4334 29.4333 17.6334 29.5 16.9001 29.3C16.1668 29.0333 15.5001 28.5667 14.9001 27.9C14.3668 27.2333 13.9334 26.4333 13.6001 25.5C13.3334 24.5 13.2334 23.4 13.3001 22.2C13.3668 20.4 13.7334 18.5 14.4001 16.5C15.0668 14.5 15.9001 12.5667 16.9001 10.7C17.9001 8.76666 18.9668 6.96666 20.1001 5.29999C21.3001 3.63333 22.4001 2.3 23.4001 1.3C23.9334 0.766664 24.4334 0.466664 24.9001 0.399998C25.4334 0.333332 25.8668 0.433331 26.2001 0.699994C26.6001 0.899995 26.8334 1.23333 26.9001 1.7C26.9668 2.16666 26.8334 2.66666 26.5001 3.2C24.9668 5.53333 23.6334 7.8 22.5001 10C21.3668 12.1333 20.6001 14.2333 20.2001 16.3C20.1334 16.4333 20.1001 16.8 20.1001 17.4C20.1668 17.9333 20.3001 18.3333 20.5001 18.6Z" fill="#9D6AF2"/>
</svg>
