<svg width="45" height="42" viewBox="0 0 45 42" fill="none" xmlns="http://www.w3.org/2000/svg">
<g clip-path="url(#clip0_1_26688)">
<path d="M4.96296 19.3004C3.56598 19.3004 2.38958 18.8225 1.43375 17.8667C0.477915 16.9108 0 15.7344 0 14.3375C0 12.9405 0.477915 11.7641 1.43375 10.8082C2.38958 9.8524 3.56598 9.37449 4.96296 9.37449C6.35995 9.37449 7.53635 9.8524 8.49218 10.8082C9.44801 11.7641 9.92593 12.9405 9.92593 14.3375C9.92593 15.7344 9.44801 16.9108 8.49218 17.8667C7.53635 18.8225 6.35995 19.3004 4.96296 19.3004ZM15.1646 9.92593C13.7676 9.92593 12.5912 9.44801 11.6354 8.49218C10.6796 7.53635 10.2016 6.35995 10.2016 4.96296C10.2016 3.56598 10.6796 2.38958 11.6354 1.43375C12.5912 0.477915 13.7676 0 15.1646 0C16.5616 0 17.738 0.477915 18.6938 1.43375C19.6497 2.38958 20.1276 3.56598 20.1276 4.96296C20.1276 6.35995 19.6497 7.53635 18.6938 8.49218C17.738 9.44801 16.5616 9.92593 15.1646 9.92593ZM28.9506 9.92593C27.5536 9.92593 26.3772 9.44801 25.4214 8.49218C24.4656 7.53635 23.9877 6.35995 23.9877 4.96296C23.9877 3.56598 24.4656 2.38958 25.4214 1.43375C26.3772 0.477915 27.5536 0 28.9506 0C30.3476 0 31.524 0.477915 32.4798 1.43375C33.4357 2.38958 33.9136 3.56598 33.9136 4.96296C33.9136 6.35995 33.4357 7.53635 32.4798 8.49218C31.524 9.44801 30.3476 9.92593 28.9506 9.92593ZM39.1523 19.3004C37.7553 19.3004 36.5789 18.8225 35.6231 17.8667C34.6672 16.9108 34.1893 15.7344 34.1893 14.3375C34.1893 12.9405 34.6672 11.7641 35.6231 10.8082C36.5789 9.8524 37.7553 9.37449 39.1523 9.37449C40.5493 9.37449 41.7257 9.8524 42.6815 10.8082C43.6373 11.7641 44.1152 12.9405 44.1152 14.3375C44.1152 15.7344 43.6373 16.9108 42.6815 17.8667C41.7257 18.8225 40.5493 19.3004 39.1523 19.3004ZM10.2568 41.9095C8.71276 41.9095 7.44444 41.3305 6.45185 40.1724C5.45926 39.0144 4.96296 37.645 4.96296 36.0642C4.96296 34.5202 5.43169 33.1508 6.36914 31.956C7.30658 30.7612 8.30837 29.6124 9.37449 28.5095C10.1833 27.7007 10.9369 26.846 11.6354 25.9453C12.3339 25.0446 12.9956 24.1163 13.6206 23.1605C14.6867 21.5429 15.8815 20.0357 17.2049 18.6387C18.5284 17.2417 20.146 16.5432 22.0576 16.5432C23.9693 16.5432 25.596 17.2417 26.9379 18.6387C28.2797 20.0357 29.4837 21.5613 30.5498 23.2156C31.1748 24.1715 31.8273 25.0905 32.5074 25.9728C33.1875 26.8551 33.932 27.7007 34.7407 28.5095C35.8069 29.6124 36.8087 30.7612 37.7461 31.956C38.6835 33.1508 39.1523 34.5202 39.1523 36.0642C39.1523 37.645 38.656 39.0144 37.6634 40.1724C36.6708 41.3305 35.4025 41.9095 33.8584 41.9095C31.8733 41.9095 29.9065 41.744 27.958 41.4132C26.0096 41.0823 24.0428 40.9169 22.0576 40.9169C20.0724 40.9169 18.1056 41.0823 16.1572 41.4132C14.2088 41.744 12.242 41.9095 10.2568 41.9095Z" fill="white"/>
</g>
<defs>
<clipPath id="clip0_1_26688">
<rect width="44.1152" height="41.9095" fill="white"/>
</clipPath>
</defs>
</svg>
